<svg width="48" height="37" viewBox="0 0 48 37" fill="none" xmlns="http://www.w3.org/2000/svg">
<path d="M21.8236 2.44109L45.0986 15.8755C47.268 17.1303 47.268 20.2666 45.0986 21.5214L21.8236 34.9558C19.6542 36.2106 16.9358 34.6422 16.9358 32.1332V5.26428C16.9358 2.75525 19.654 1.1869 21.8236 2.44161V2.44109Z" stroke="#969696" stroke-width="2" stroke-miterlimit="10"/>
<path d="M17.4974 5.9047V31.2842H17.4059C17.4059 31.6372 17.2623 31.9509 17.0401 32.186C16.8049 32.4211 16.4912 32.5648 16.1383 32.5648H9.10745C8.41496 32.5648 7.83979 31.9896 7.83979 31.2972C7.83979 30.9442 7.98345 30.6305 8.21859 30.3954C8.45372 30.1603 8.76741 30.0295 9.12037 30.0295H14.3869C14.7399 30.0295 15.0536 29.8858 15.2887 29.6507C15.5238 29.4156 15.6675 29.1019 15.6675 28.7489C15.6675 28.0564 15.0923 27.4813 14.3998 27.4813H10.8976C10.2051 27.4813 9.62993 26.9061 9.62993 26.2136C9.62993 25.8607 9.77359 25.547 10.0087 25.3118C10.2439 25.0767 10.5575 24.933 10.9105 24.933H14.4128C14.7657 24.933 15.0794 24.7894 15.3145 24.5672C15.5497 24.332 15.6933 24.0184 15.6933 23.6654C15.6933 22.9729 15.1182 22.3977 14.4257 22.3977H7.4864C6.79392 22.3977 6.21875 21.8226 6.21875 21.1301C6.21875 20.7771 6.36241 20.4634 6.59755 20.2283C6.83268 19.9932 7.14637 19.8495 7.49933 19.8495H14.4386C15.1311 19.8495 15.7063 19.2743 15.7063 18.5818C15.7063 17.8894 15.1311 17.3142 14.4386 17.3142H11.8258C11.1333 17.3142 10.5581 16.739 10.5581 16.0465C10.5581 15.6936 10.7018 15.3799 10.9369 15.1448C11.1721 14.9096 11.4857 14.766 11.8387 14.766H14.387C14.7399 14.766 15.0536 14.6223 15.2888 14.3872C15.5239 14.152 15.6676 13.8383 15.6676 13.4854C15.6676 12.7929 15.0924 12.2177 14.3999 12.2177H8.47969C7.7872 12.2177 7.21204 11.6425 7.21204 10.9501C7.21204 10.5971 7.3557 10.2834 7.59084 10.0483C7.82598 9.81317 8.13965 9.66949 8.49262 9.66949H14.4128C14.7658 9.66949 15.0795 9.52583 15.3146 9.29069C15.5497 9.05556 15.6934 8.74188 15.6934 8.38891C15.6934 7.69643 15.1182 7.12126 14.4258 7.12126H10.9235C10.231 7.12126 9.65585 6.54608 9.65585 5.85361C9.65585 5.50064 9.79951 5.18696 10.0346 4.95183C10.2698 4.7167 10.5835 4.57303 10.9364 4.57303L16.1383 4.57251C16.8308 4.57251 17.4059 5.14769 17.4059 5.84016H17.4974V5.9047Z" fill="#969696"/>
<path d="M4.72953 12.269H1.73688C1.03096 12.269 0.456299 11.6939 0.456299 10.9885C0.456299 10.2825 1.03148 9.70789 1.73688 9.70789H4.72953C5.43544 9.70789 6.01011 10.2831 6.01011 10.9885C6.02354 11.6939 5.43544 12.269 4.72953 12.269Z" fill="#969696"/>
<path d="M6.97709 27.494H3.98444C3.27852 27.494 2.70386 26.9188 2.70386 26.2134C2.70386 25.5075 3.27904 24.9329 3.98444 24.9329H6.97709C7.683 24.9329 8.25767 25.508 8.25767 26.2134C8.27059 26.9188 7.68249 27.494 6.97709 27.494Z" fill="#969696"/>
<path d="M8.08832 17.222H4.46832C3.76241 17.222 3.18774 16.6469 3.18774 15.9415C3.18774 15.2356 3.76292 14.6609 4.46832 14.6609H8.08832C8.79423 14.6609 9.3689 15.2361 9.3689 15.9415C9.3689 16.6469 8.79423 17.222 8.08832 17.222Z" fill="#969696"/>
<path d="M6.97711 7.21131H5.40875C4.70284 7.21131 4.12817 6.63612 4.12817 5.93073C4.12817 5.22481 4.70335 4.65015 5.40875 4.65015H6.97711C7.68303 4.65015 8.25769 5.22533 8.25769 5.93073C8.27061 6.63612 7.68251 7.21131 6.97711 7.21131Z" fill="#969696"/>
<path d="M3.67126 22.2911H2.63873C1.93282 22.2911 1.35815 21.716 1.35815 21.0106C1.35815 20.3046 1.93333 19.73 2.63873 19.73H3.67126C4.37717 19.73 4.95184 20.3052 4.95184 21.0106C4.96476 21.703 4.37666 22.2911 3.67126 22.2911Z" fill="#969696"/>
<path d="M5.47418 32.551C4.76827 32.551 4.1936 31.9758 4.1936 31.2704C4.1936 30.5645 4.76878 29.9899 5.47418 29.9899C6.1801 29.9899 6.75476 30.565 6.75476 31.2704C6.75528 31.9764 6.1801 32.551 5.47418 32.551Z" fill="#969696"/>
<path d="M14.5576 4.63678C14.5576 4.63678 15.433 4.59751 16.0733 3.36913C16.7007 2.14074 17.1709 5.00271 17.1709 5.00271L15.8119 5.36859L14.5571 4.70194L14.5576 4.63678Z" fill="#969696"/>
<path d="M14.5576 32.5383C14.5576 32.5383 15.433 32.5776 16.0733 33.806C16.7007 35.0344 17.1709 32.1724 17.1709 32.1724L15.8119 31.8065L14.5571 32.4732L14.5576 32.5383Z" fill="#969696"/>
</svg>
