<svg width="60" height="41" viewBox="0 0 60 41" fill="none" xmlns="http://www.w3.org/2000/svg">
<path d="M54.8904 40.743C56.2052 40.7413 57.4654 40.2182 58.395 39.2885C59.3246 38.3589 59.8477 37.098 59.8489 35.7833V15.2039C59.8477 13.8891 59.3246 12.6289 58.395 11.6993C57.4653 10.7697 56.2051 10.2466 54.8904 10.2448H54.7192V5.1946C54.7174 3.81735 54.1693 2.49664 53.1956 1.52291C52.2214 0.549269 50.9012 0.00121735 49.524 0H9.12606C7.74881 0.0011889 6.42856 0.549239 5.45437 1.52291C4.48073 2.49655 3.93268 3.81732 3.93085 5.1946V32.5775H3.06776C2.25401 32.5786 1.4747 32.9014 0.899349 33.4768C0.32456 34.0516 0.000608677 34.8309 0 35.6446C0.00118875 36.9963 0.539134 38.2921 1.49494 39.248C2.45074 40.2044 3.7472 40.7417 5.09892 40.7435L54.8904 40.743ZM57.284 15.2045V35.7838C57.2834 36.4187 57.0308 37.0274 56.582 37.4761C56.1332 37.9249 55.5251 38.1775 54.8903 38.1787H47.242C46.6071 38.1775 45.9985 37.9249 45.5497 37.4761C45.1015 37.0273 44.8489 36.4187 44.8483 35.7838V15.2045C44.8489 14.5696 45.1015 13.961 45.5503 13.5122C45.9991 13.0634 46.6072 12.8114 47.242 12.8108H54.8903C55.5251 12.8114 56.1332 13.0634 56.582 13.5122C57.0307 13.961 57.2834 14.5697 57.284 15.2045ZM6.49445 5.19524C6.49563 4.498 6.77263 3.82928 7.26599 3.33649C7.75876 2.84372 8.42747 2.56613 9.12474 2.56554H49.5226C50.2199 2.56614 50.888 2.84372 51.3814 3.33649C51.8742 3.82926 52.1517 4.49797 52.1529 5.19524V10.2459L47.2407 10.2453C45.9259 10.2471 44.6657 10.7702 43.7361 11.6998C42.8065 12.6295 42.2834 13.8897 42.2822 15.2044V32.5776H6.49352L6.49445 5.19524ZM2.56361 35.6443C2.5642 35.3667 2.7889 35.1426 3.06648 35.142H42.282V35.7834C42.2814 36.6215 42.4942 37.4454 42.9008 38.1782H5.0974C4.42571 38.1776 3.78137 37.9102 3.30636 37.4352C2.83143 36.9597 2.56395 36.3159 2.56335 35.6442L2.56361 35.6443Z" fill="#969696"/>
</svg>
