<svg width="166" height="49" viewBox="0 0 166 49" fill="none" xmlns="http://www.w3.org/2000/svg">
<path d="M18.5478 2.4555L2.44984 18.5534C2.24878 18.7544 1.99257 18.8911 1.7137 18.9463C1.43482 19.0014 1.14585 18.9725 0.883426 18.8633C0.620998 18.754 0.396939 18.5692 0.239662 18.3324C0.0823857 18.0956 -0.00102654 17.8174 9.53603e-06 17.5331V1.43521C9.53603e-06 1.24674 0.0371356 1.06011 0.109262 0.885982C0.181388 0.711855 0.287102 0.553641 0.420373 0.42037C0.553645 0.287099 0.711862 0.181384 0.885989 0.109258C1.06012 0.0371323 1.24674 9.64449e-06 1.43522 9.64449e-06H17.5331C17.8181 -0.0010348 18.0969 0.0827739 18.3341 0.240759C18.5712 0.398745 18.756 0.623751 18.8648 0.887117C18.9736 1.15048 19.0016 1.44028 18.9451 1.7196C18.8887 1.99891 18.7503 2.25509 18.5478 2.4555Z" fill="#5766EF"/>
<path d="M17.5331 49H1.43521C1.05457 49 0.689517 48.8488 0.420364 48.5796C0.15121 48.3105 0 47.9454 0 47.5648V31.4669C8.83803e-05 31.1831 0.0843106 30.9057 0.242019 30.6698C0.399728 30.4338 0.623844 30.25 0.886039 30.1414C1.14823 30.0328 1.43674 30.0043 1.71508 30.0597C1.99343 30.115 2.24912 30.2516 2.44983 30.4523L18.5477 46.5502C18.7484 46.7509 18.885 47.0066 18.9403 47.2849C18.9957 47.5633 18.9672 47.8518 18.8587 48.114C18.7501 48.3762 18.5662 48.6003 18.3302 48.758C18.0943 48.9157 17.8169 48.9999 17.5331 49Z" fill="#5766EF"/>
<path d="M24.4972 17.4696V31.5417C24.4983 31.8259 24.4149 32.1041 24.2576 32.3409C24.1003 32.5777 23.8762 32.7625 23.6138 32.8718C23.3514 32.9811 23.0624 33.01 22.7835 32.9548C22.5047 32.8997 22.2485 32.7629 22.0474 32.562L15.0119 25.5265C14.7429 25.2574 14.5918 24.8924 14.5918 24.5119C14.5918 24.1313 14.7429 23.7664 15.0119 23.4972L22.0474 16.4618C22.2477 16.2616 22.5028 16.1251 22.7805 16.0695C23.0582 16.014 23.3461 16.0418 23.6081 16.1496C23.87 16.2573 24.0942 16.4401 24.2524 16.675C24.4106 16.9099 24.4958 17.1864 24.4972 17.4696Z" fill="#5766EF"/>
<path d="M36.871 41.1086V7.37559C36.8691 7.27087 36.8884 7.16685 36.9276 7.06974C36.9669 6.97262 37.0252 6.88441 37.0993 6.81035C37.1734 6.73629 37.2616 6.67791 37.3587 6.63868C37.4558 6.59945 37.5598 6.58019 37.6645 6.58203H44.4268C44.5315 6.58019 44.6355 6.59945 44.7326 6.63868C44.8297 6.67791 44.918 6.73629 44.992 6.81035C45.0661 6.88441 45.1245 6.97262 45.1637 7.06974C45.2029 7.16685 45.2222 7.27087 45.2203 7.37559V26.1002L51.6402 18.0988C51.7471 17.9677 51.8833 17.8636 52.038 17.795C52.1926 17.7265 52.3612 17.6954 52.5302 17.7043H60.086C60.7786 17.7043 60.9759 18.0988 60.5304 18.6917L52.6288 27.8743L61.8114 40.9624C62.1515 41.5054 61.9599 41.8999 61.367 41.8999H54.1116C53.716 41.8999 53.4688 41.8013 53.2228 41.4555L47.6906 33.6027L45.2203 36.5162V41.1086C45.2222 41.2134 45.2029 41.3174 45.1637 41.4145C45.1245 41.5116 45.0661 41.5998 44.992 41.6739C44.918 41.7479 44.8297 41.8063 44.7326 41.8455C44.6355 41.8848 44.5315 41.904 44.4268 41.9022H37.6611C37.5567 41.9036 37.453 41.884 37.3563 41.8445C37.2596 41.8051 37.1718 41.7466 37.0981 41.6726C37.0244 41.5986 36.9663 41.5106 36.9273 41.4137C36.8883 41.3168 36.8691 41.2131 36.871 41.1086Z" fill="#C7C7C7"/>
<path d="M60.9341 29.7006C60.9341 22.588 65.9222 17.1057 73.478 17.1057C80.8864 17.1057 85.1841 22.4894 85.1841 28.712C85.1841 31.3296 84.5413 32.9598 82.1232 32.9598H69.0329C69.9228 35.1818 72.0462 36.0207 75.0583 36.0207C76.4414 36.0207 78.0228 35.9708 80.0464 34.887C80.4409 34.6898 80.688 34.7884 80.9352 35.1829L83.2025 38.3447C83.4009 38.6406 83.4496 39.0362 82.9553 39.4783C80.9306 41.5529 77.8187 42.4905 74.3622 42.4905C66.4198 42.4916 60.9341 37.1578 60.9341 29.7006ZM77.8256 27.2802C77.3324 24.7114 75.5582 23.8724 73.529 23.8724C71.4057 23.8724 69.5283 24.81 68.881 27.2802H77.8256Z" fill="#C7C7C7"/>
<path d="M87.3833 29.7006C87.3833 22.588 92.3714 17.1057 99.9283 17.1057C107.337 17.1057 111.634 22.4894 111.634 28.712C111.634 31.3296 110.992 32.9598 108.574 32.9598H95.4833C96.3732 35.1818 98.4965 36.0207 101.509 36.0207C102.892 36.0207 104.472 35.9708 106.497 34.887C106.892 34.6898 107.14 34.7884 107.387 35.1829L109.654 38.3447C109.851 38.6406 109.901 39.0362 109.407 39.4783C107.382 41.5529 104.27 42.4905 100.814 42.4905C92.8657 42.4916 87.3833 37.1578 87.3833 29.7006ZM104.275 27.2802C103.782 24.7114 102.007 23.8724 99.9782 23.8724C97.8537 23.8724 95.9775 24.81 95.3302 27.2802H104.275Z" fill="#C7C7C7"/>
<path d="M120.902 41.307L111.863 18.5376C111.666 17.9945 111.962 17.6987 112.506 17.6987H119.37C119.766 17.6987 120.164 17.8959 120.309 18.2916L125.198 32.3183L130.039 18.2916C130.187 17.8959 130.632 17.6987 131.027 17.6987H137.84C138.384 17.6987 138.68 17.9945 138.483 18.5376L129.451 41.307C129.384 41.487 129.262 41.6413 129.103 41.7476C128.943 41.8539 128.754 41.9069 128.562 41.8988H121.795C121.603 41.9078 121.412 41.8554 121.252 41.749C121.091 41.6426 120.969 41.4878 120.902 41.307Z" fill="#C7C7C7"/>
<path d="M138.723 29.7992C138.723 22.6867 143.316 17.1023 149.984 17.1023C153.392 17.1023 155.713 18.3368 157.245 20.4613L157.343 18.4854C157.342 18.3806 157.361 18.2766 157.4 18.1795C157.439 18.0824 157.498 17.9942 157.572 17.9201C157.646 17.8461 157.734 17.7877 157.831 17.7484C157.928 17.7092 158.032 17.69 158.137 17.6918H164.259C164.363 17.69 164.467 17.7092 164.565 17.7484C164.662 17.7877 164.75 17.8461 164.824 17.9201C164.898 17.9942 164.956 18.0824 164.996 18.1795C165.035 18.2766 165.054 18.3806 165.052 18.4854V41.1052C165.045 41.3214 164.953 41.526 164.795 41.6745C164.638 41.8231 164.429 41.9036 164.212 41.8987H158.132C158.028 41.9006 157.924 41.8813 157.827 41.8421C157.729 41.8029 157.641 41.7445 157.567 41.6704C157.493 41.5964 157.435 41.5081 157.396 41.411C157.356 41.3139 157.337 41.2099 157.339 41.1052L157.24 39.0805C155.61 41.2038 153.288 42.4882 149.979 42.4882C143.316 42.4916 138.723 36.9605 138.723 29.7992ZM151.861 34.9846C154.775 34.9846 156.799 32.91 156.799 29.7493C156.799 26.6375 154.775 24.6128 151.861 24.6128C148.996 24.6128 146.823 26.6874 146.823 29.7992C146.823 32.9599 148.996 34.9846 151.861 34.9846Z" fill="#C7C7C7"/>
</svg>
