<svg width="43" height="47" viewBox="0 0 43 47" fill="none" xmlns="http://www.w3.org/2000/svg">
<path d="M4.68547 32.5624H23.1829C23.495 32.5624 23.7485 32.8155 23.7485 33.128C23.7485 33.4405 23.495 33.6937 23.1829 33.6937H4.68547C4.37331 33.6937 4.11983 33.4405 4.11983 33.128C4.11983 32.8155 4.37331 32.5624 4.68547 32.5624ZM23.1829 37.3436H4.68547C4.37331 37.3436 4.11983 37.5967 4.11983 37.9092C4.11983 38.2218 4.37331 38.4749 4.68547 38.4749H23.1829C23.495 38.4749 23.7485 38.2218 23.7485 37.9092C23.7485 37.5967 23.495 37.3436 23.1829 37.3436ZM42.5776 16.6136V26.5141C42.5762 27.6071 42.1417 28.6546 41.3689 29.4273C40.5965 30.2001 39.549 30.6347 38.4561 30.6363H36.0434C34.8098 32.9433 32.3931 34.1205 28.8529 34.1365H28.8502H28.8506C28.6238 34.1368 28.4193 34.0018 28.3299 33.7937C28.2409 33.5856 28.2842 33.3441 28.4407 33.1803C29.1644 32.4616 29.722 31.5931 30.0739 30.6356H27.8703V38.5332C27.869 39.7128 27.4001 40.8437 26.566 41.6779C25.7319 42.5116 24.6009 42.9809 23.4213 42.9822H13.5301C13.913 44.0628 14.5347 45.0427 15.3495 45.8491C15.5062 46.0128 15.5503 46.2543 15.4609 46.4627C15.3718 46.6708 15.1667 46.8059 14.9399 46.8052H14.9373C11.0782 46.7876 8.44879 45.5018 7.1161 42.9802H4.44869H4.44902C3.26942 42.9792 2.13849 42.5099 1.30434 41.6758C0.470226 40.8417 0.00093917 39.7107 0 38.5312V27.7213C0.00133405 26.5417 0.470251 25.411 1.30434 24.577C2.13845 23.7428 3.26942 23.2736 4.44902 23.2723H16.9605V18.1439H12.7573C13.1088 19.1014 13.6664 19.9699 14.3901 20.6886C14.5466 20.8524 14.5903 21.0935 14.5009 21.3019C14.4118 21.5101 14.207 21.6448 13.9806 21.6448H13.9779C10.4377 21.6288 8.02102 20.4515 6.78737 18.1446L4.37473 18.1443C3.28179 18.1436 2.23359 17.709 1.46048 16.936C0.6874 16.1632 0.252538 15.115 0.251514 14.0221V4.12151C0.252848 3.02857 0.68775 1.98071 1.46082 1.20794C2.23391 0.435527 3.28179 0.00093917 4.37473 0H21.7485C22.8408 0.00166754 23.888 0.436569 24.6604 1.20897C25.4328 1.98172 25.8674 3.02891 25.8687 4.12151V12.4927H38.4561C39.5487 12.494 40.5962 12.9289 41.369 13.7013C42.1414 14.4741 42.5763 15.5212 42.5776 16.6138L42.5776 16.6136ZM16.9604 17.0108V16.6122C16.9621 15.5196 17.3967 14.4721 18.1691 13.6997C18.9418 12.9269 19.9893 12.4923 21.0819 12.4907H24.7372V4.12125C24.7362 3.32849 24.421 2.56838 23.8603 2.00778C23.2997 1.44748 22.54 1.13196 21.7472 1.13093H4.37426C3.5815 1.13193 2.82173 1.44743 2.26113 2.00778C1.70049 2.56841 1.38531 3.32851 1.38428 4.12125V14.0218C1.38562 14.8142 1.70079 15.574 2.26138 16.1343C2.82202 16.6946 3.58177 17.0097 4.37418 17.0108H7.13662C7.3564 17.0108 7.55651 17.1382 7.64923 17.3373C8.48968 19.1406 10.1903 20.1828 12.712 20.4449L12.7116 20.4452C12.0946 19.6291 11.6697 18.6846 11.468 17.6818C11.4366 17.5163 11.4803 17.3459 11.5874 17.2162C11.6944 17.0865 11.8535 17.0111 12.0216 17.0108L16.9604 17.0108ZM26.7398 30.6364H21.0834C19.7527 30.6358 18.5043 29.9924 17.7319 28.9092H4.68683V27.7783H17.1624C17.0304 27.3701 16.9633 26.9435 16.9637 26.5142V24.4037H4.44964C3.57015 24.4047 2.72669 24.7546 2.10505 25.3766C1.48304 25.9983 1.13318 26.8417 1.1319 27.7212V38.5337C1.13323 39.4131 1.48309 40.2566 2.10505 40.8786C2.72671 41.5006 3.57015 41.8505 4.44964 41.8515H7.46626C7.68637 41.8515 7.88649 41.9792 7.9792 42.1787C8.91837 44.1917 10.8287 45.3457 13.6662 45.6141C12.9608 44.707 12.4753 43.6491 12.2475 42.5228C12.2165 42.3577 12.2601 42.187 12.3672 42.0572C12.4739 41.9278 12.633 41.8521 12.8011 41.8515H23.4206C24.3004 41.8505 25.1435 41.5006 25.7655 40.8786C26.3875 40.2565 26.7374 39.4131 26.7384 38.5336L26.7398 30.6364ZM41.4472 16.6138C41.4462 15.8213 41.1307 15.0612 40.5703 14.5006C40.0097 13.94 39.2496 13.6248 38.4568 13.6238H21.0839C20.2911 13.6248 19.531 13.9399 18.9704 14.5006C18.4101 15.0613 18.0946 15.8214 18.0939 16.6138V26.5143C18.0946 27.3074 18.4098 28.0674 18.9704 28.6281C19.5311 29.1888 20.2912 29.504 21.0839 29.505H30.8077C30.9758 29.5056 31.1352 29.5807 31.242 29.7104C31.349 29.8402 31.3927 30.0109 31.3613 30.176C31.1599 31.1789 30.7347 32.1234 30.1177 32.9395C32.639 32.6773 34.3393 31.6351 35.1798 29.8318C35.2728 29.6324 35.4729 29.505 35.6927 29.505H38.4551C39.2479 29.504 40.008 29.1888 40.5686 28.6282C41.1293 28.0675 41.4444 27.3074 41.4455 26.5143L41.4472 16.6138ZM36.3517 20.9618L35.0357 26.8376C34.8082 27.8541 34.1342 28.4858 33.2777 28.4858H30.3696C29.4594 28.4861 28.5843 28.1343 27.9275 27.5036C27.8442 27.7231 27.6341 27.8681 27.3993 27.8685H24.5044C24.1519 27.8681 23.8137 27.7277 23.5645 27.4786C23.3154 27.2291 23.175 26.8913 23.1747 26.5387V22.0147C23.175 21.6621 23.3154 21.3243 23.5645 21.0748C23.8137 20.8257 24.1519 20.6853 24.5044 20.6849H27.1915C27.524 20.0046 28.0663 19.4489 28.738 19.0991C30.2311 18.1363 30.7924 17.7633 31.1839 15.1433C31.2226 14.8825 31.4364 14.6831 31.6992 14.6627C33.0723 14.556 34.0648 14.8852 34.6448 15.6426C35.4726 16.7216 35.2084 18.3464 34.7989 19.597C35.04 19.7515 35.2902 19.8909 35.5483 20.0146C36.0569 20.2727 36.4605 20.4762 36.3517 20.9618ZM26.8337 21.8173H24.5044C24.3954 21.8189 24.3077 21.907 24.306 22.0157V26.5398C24.3077 26.6485 24.3954 26.7366 24.5044 26.7379H26.8337V21.8173ZM35.1641 21.0875L35.0364 21.0225C34.3026 20.6526 33.3892 20.1917 33.654 19.4423C34.1503 18.0332 34.1836 16.9003 33.745 16.3296H33.7447C33.3518 15.9188 32.7909 15.713 32.2252 15.7723C31.7633 18.3894 30.9699 19.0024 29.3257 20.0623C29.3107 20.072 29.2943 20.0813 29.2783 20.0893L29.2786 20.0897C28.8834 20.2904 28.5512 20.5969 28.3195 20.9748C28.0877 21.3526 27.965 21.7872 27.965 22.2305V24.9482C27.9656 25.5859 28.2191 26.1973 28.67 26.6481C29.1209 27.099 29.7322 27.3529 30.3696 27.3535H33.2778C33.7137 27.3535 33.8817 26.8189 33.9321 26.5891L35.1641 21.0875ZM15.1675 13.9914C15.0064 14.0881 13.6576 14.8889 13.05 14.8893C13.0196 14.8893 12.9893 14.8869 12.9596 14.8816C10.7894 14.1622 8.90673 12.7668 7.58737 10.8998C6.35168 8.97405 6.15992 6.95202 7.06209 5.3515C7.36926 4.77085 7.8295 4.28495 8.39281 3.94642C8.95578 3.60791 9.60075 3.42947 10.2578 3.43047C11.3841 3.49084 12.417 4.07515 13.049 5.0093C14.0725 3.51918 15.2921 3.26133 15.9875 3.25433H16.0176C16.6742 3.27701 17.3119 3.48112 17.8599 3.84432C18.4075 4.20751 18.844 4.71544 19.1206 5.31182C20.0234 7.08079 19.6849 9.32361 18.2148 11.31V11.3097C17.3803 12.3906 16.3457 13.3011 15.1675 13.9914ZM17.306 10.638C18.5139 9.00375 18.8158 7.20515 18.1111 5.82645C17.9283 5.4169 17.6358 5.06571 17.2659 4.81155C16.8961 4.55739 16.4635 4.41034 16.0156 4.38599H15.9969C15.046 4.39566 14.1849 5.09703 13.5696 6.36209C13.4752 6.55585 13.2787 6.67925 13.0633 6.68026C12.8485 6.68026 12.6524 6.55886 12.5567 6.36676C11.9904 5.22746 11.1636 4.58617 10.2291 4.5621H10.1747V4.56176C9.7328 4.57777 9.30324 4.71084 8.92971 4.9473C8.55584 5.18376 8.25168 5.51494 8.04826 5.90748C7.35889 7.13113 7.53798 8.72832 8.53985 10.2891C9.90891 12.4219 12.5577 13.5736 13.0947 13.7493H13.095C14.7515 13.1063 16.2057 12.0314 17.3059 10.6359L17.306 10.638Z" fill="#969696"/>
</svg>
