<svg width="51" height="55" viewBox="0 0 51 55" fill="none" xmlns="http://www.w3.org/2000/svg">
<path d="M32.1033 22.6477L39.9235 18.7871C40.0318 18.7367 40.1503 18.7097 40.27 18.708C40.5661 18.7058 40.8361 18.8759 40.963 19.1437L42.111 21.4603L43.2591 23.7865V23.7861C43.4407 24.1697 43.2878 24.628 42.9126 24.8255L31.1627 30.6363H31.1631C31.1172 30.6536 31.0739 30.677 31.0341 30.7057L24.7879 33.7842C24.6045 33.8809 24.3884 33.8955 24.194 33.8239C23.9973 33.7647 23.8351 33.6242 23.7485 33.4377L21.4518 28.8002C21.3599 28.6154 21.3458 28.4016 21.4125 28.2062C21.4779 28.0131 21.6167 27.8531 21.7983 27.7608L31.9352 22.7419C31.9935 22.7145 32.0496 22.6831 32.1036 22.6477L32.1033 22.6477ZM47.0809 19.005C46.9677 18.7703 46.764 18.5918 46.5165 18.51C46.2664 18.4221 45.9911 18.4402 45.7542 18.5595L43.4575 19.6978L44.3285 21.4699L45.744 20.7673L48.4464 26.2317L38.1718 38.9716C37.9291 39.2712 37.8827 39.6848 38.0529 40.0308L40.3394 44.6436L42.1115 43.7624L40.1118 39.7237L50.3869 26.9838V26.9843C50.6313 26.6851 50.6777 26.2706 50.5058 25.925L47.0809 19.005ZM44.9495 45.6986C44.8368 45.4568 44.6317 45.2708 44.3803 45.1824C44.1284 45.0945 43.8522 45.1113 43.6131 45.2292L40.6888 46.6765C40.2023 46.9174 40.0003 47.5052 40.2363 47.9943L43.1198 53.8705L43.1203 53.8701C43.2352 54.1087 43.4407 54.2908 43.6908 54.3765C43.9414 54.4623 44.2154 54.4446 44.4527 54.3266L47.3084 52.9098C47.7896 52.6712 47.9925 52.0923 47.7658 51.6053L44.9495 45.6986ZM4.09845 17.6293V36.536H6.07827V17.6293H4.09845ZM0.989908 22.3808C0.443252 22.3808 0 22.8236 0 23.3707V25.0271V25.0267C0 25.5733 0.443252 26.0166 0.989908 26.0166C1.53701 26.0166 1.97982 25.5733 1.97982 25.0267V23.3747C1.97982 23.1118 1.87552 22.8603 1.68992 22.6747C1.50431 22.4891 1.25241 22.3848 0.989908 22.3848V22.3808ZM0.989908 27.2906C0.443252 27.2906 0 27.7338 0 28.2805V32.7598C0 33.3065 0.443252 33.7497 0.989908 33.7497C1.53701 33.7497 1.97982 33.3065 1.97982 32.7598V28.2844C1.97982 28.0219 1.87552 27.77 1.68992 27.5844C1.50431 27.3988 1.25241 27.2945 0.989908 27.2945V27.2906ZM32.538 17.6252H30.5582V21.2185L32.538 20.2383V17.6252ZM30.5582 36.5319H32.538V32.1564L30.5582 33.1366V36.5319ZM8.8594 41.3034H27.7661V39.3236L8.8594 39.3231V41.3034ZM27.7661 12.8619H8.8594V14.8417H27.7661V12.8619ZM3.27632 15.6487H6.87981V12.0452H3.27632V15.6487ZM33.3492 12.0452H29.7457V15.6487H33.3492V12.0452ZM29.7457 42.118H33.3492V38.5145L29.7457 38.515V42.118ZM3.27496 42.118H6.87845V38.5145L3.27541 38.515L3.27496 42.118ZM36.8233 6.89877H36.8896C37.1516 6.88154 37.3964 6.76088 37.5692 6.56335C37.7425 6.36581 37.8295 6.10774 37.8123 5.84566L37.4888 0.926665V0.927107C37.4526 0.38001 36.9801 -0.0336366 36.4335 0.00215852C35.8868 0.038396 35.4727 0.510813 35.509 1.05747L35.8325 5.97522V5.97567C35.8674 6.4967 36.3013 6.90054 36.8233 6.89877ZM43.3845 7.24037C43.6695 7.24037 43.9409 7.11752 44.1291 6.90274L47.2465 3.34608H47.2461C47.4352 3.15163 47.5364 2.88825 47.5262 2.61735C47.5156 2.34645 47.3941 2.09147 47.1904 1.91248C46.9866 1.73306 46.7184 1.64555 46.4484 1.66987C46.1784 1.69373 45.93 1.82807 45.7612 2.04064L42.6438 5.59854L42.6443 5.5981C42.388 5.8902 42.3265 6.30517 42.4869 6.65915C42.6474 7.01313 43 7.24028 43.3885 7.24028L43.3845 7.24037ZM44.4981 12.7623C44.5326 13.2833 44.9661 13.6881 45.4881 13.6868H45.5543L49.7407 13.4106C50.2874 13.3748 50.7014 12.9019 50.6652 12.3553C50.6294 11.8086 50.157 11.3949 49.6099 11.4307L45.4235 11.7069H45.424C45.161 11.7237 44.9153 11.8444 44.7417 12.0424C44.568 12.2403 44.4805 12.4993 44.4981 12.7623Z" fill="#969696"/>
</svg>
